<svg width="303" height="90" viewBox="0 0 303 90" fill="none" xmlns="http://www.w3.org/2000/svg">
<rect width="90" height="90" rx="45" fill="#F5F5F5"/>
<path d="M29.4234 18.0319C29.1967 18.0853 29.1167 18.2588 28.9834 18.9927C28.9034 19.4864 28.7967 20.2737 28.7567 20.7541L28.6767 21.6214L29.69 21.5814C30.8367 21.528 31.81 21.7548 32.9834 22.3553L33.7167 22.7289L34.21 21.2478L34.7034 19.7533L34.1567 19.2595C33.2367 18.4055 32.3034 18.0453 30.9167 18.0052C30.2634 17.9919 29.5834 18.0052 29.4234 18.0319Z" fill="#467773"/>
<path d="M37.9567 18.9126C37.69 19.2862 36.2633 22.8757 36.3567 22.9691C36.3833 22.9958 36.6367 22.9558 36.9167 22.8757C37.21 22.7956 37.9433 22.7556 38.5433 22.7823C39.4633 22.8357 39.7833 22.9157 40.61 23.3161C41.1433 23.5829 41.6233 23.7697 41.6767 23.7431C41.73 23.703 42.1433 23.1292 42.5833 22.4621C43.3433 21.3011 43.37 21.2478 43.1833 20.8875C42.8233 20.1803 41.6767 19.3129 40.7567 19.0194C39.77 18.7125 38.1567 18.6591 37.9567 18.9126Z" fill="#12514C"/>
<path d="M46.49 20.0869C45.4634 20.4471 44.41 21.0876 43.61 21.8215L42.9167 22.462L43.5567 23.1426C44.3834 24.0233 44.85 25.0507 45.0367 26.4118L45.1967 27.4926L46.1434 26.5586C46.8767 25.8247 47.1434 25.451 47.37 24.8372C47.7167 23.9032 48.05 21.8349 48.05 20.6473V19.82H47.6234C47.3834 19.8333 46.8634 19.9401 46.49 20.0869Z" fill="#12514C"/>
<path d="M22.77 22.3286C21.85 22.6489 20.9833 23.3561 20.9833 23.7564C20.9833 24.09 21.85 27.6261 21.9967 27.8396C22.0367 27.9063 22.3033 27.7729 22.5967 27.546C23.33 26.9722 24.3033 26.6253 25.2233 26.6253H25.9967L25.9567 25.7846C25.89 24.557 25.6367 22.3019 25.5567 22.2219C25.53 22.1818 25.0367 22.1418 24.4767 22.1151C23.7433 22.0884 23.25 22.1551 22.77 22.3286Z" fill="#467773"/>
<path d="M50.29 24.05C49.5967 25.0641 48.89 26.1182 48.73 26.3851L48.4367 26.8655L49.25 27.3058C50.1567 27.7862 51.09 28.7603 51.21 29.3207C51.25 29.5342 51.33 29.7344 51.3967 29.7744C51.53 29.8545 55.1167 26.3184 55.1167 26.1049C55.1167 25.7446 54.41 24.4903 53.8767 23.8765C53.3834 23.3161 51.9034 22.2219 51.65 22.2219C51.5967 22.2219 50.9834 23.0492 50.29 24.05Z" fill="#467773"/>
<path d="M29.1566 25.838L28.5833 25.9715V27.3459C28.5833 28.1065 28.6233 28.9071 28.6633 29.1339C28.7433 29.5343 28.7433 29.5343 29.1966 29.3474C29.7566 29.1073 30.81 29.1206 31.25 29.3474L31.5833 29.5343L31.9033 28.3867C32.3833 26.652 32.37 26.5052 31.65 26.1449C30.9433 25.7713 29.93 25.6512 29.1566 25.838Z" fill="#12514C"/>
<path d="M69.435 40.1173C69.6851 39.5669 71.4286 38.6872 74.885 37.3151C73.3817 38.2167 72.385 38.9664 72.385 38.9664C72.385 38.9664 69.6826 41.3964 69.235 41.1931C69.1648 40.7325 69.185 40.6677 69.435 40.1173Z" fill="#467773"/>
<path d="M40.3916 25.874C40.0716 26.3544 39.7782 26.7547 39.7249 26.7547C39.6849 26.7414 39.3116 26.6346 38.9116 26.4878C38.1116 26.2076 36.8582 26.1409 36.0982 26.3544L35.6182 26.4878L35.2716 28.0624C34.9782 29.3701 34.7382 30.6111 34.4582 32.4525C34.4182 32.706 34.4982 32.7461 35.2982 32.8261C35.7782 32.8662 36.2716 32.9329 36.3782 32.9729C36.5249 33.0129 36.6716 32.7728 36.8982 32.1189C37.3649 30.8246 38.3649 28.8897 38.5649 28.8897C39.2449 28.8897 40.3916 29.6103 40.7116 30.2374L40.9249 30.6244L41.9249 29.7838L42.9249 28.9564L42.8582 28.3159C42.7649 27.4353 42.2716 26.4211 41.5649 25.6338L40.9649 24.98L40.3916 25.874Z" fill="#313334"/>
<path d="M24.7833 30.882C24.49 31.0154 24.0767 31.3223 23.85 31.5492L23.4633 31.9628L23.97 33.0036C24.25 33.5641 24.81 34.5382 25.2233 35.1653L25.97 36.2995L26.05 35.7391C26.1033 35.3922 26.3033 34.9652 26.57 34.6316L27.01 34.0845L26.73 33.057C26.5833 32.4966 26.4233 31.7093 26.37 31.3223C26.2767 30.6284 26.2767 30.6284 25.7967 30.6284C25.53 30.6284 25.0767 30.7485 24.7833 30.882Z" fill="#12514C"/>
<path d="M34.275 34.585C34.2263 34.4049 34.2693 34.3619 34.37 34.305L36.18 34.065C36.1108 34.1234 36.0979 34.1634 36.115 34.245C37.0375 39.6221 37.2291 42.705 37.61 48.075C37.6146 49.9418 37.7263 50.803 37.61 52.065H35.47C35.5993 50.6611 35.6223 49.85 35.615 48.38C35.5648 42.879 35.3826 40.251 34.275 34.585Z" fill="#12514C"/>
<path d="M46.5133 32.8118C45.8867 34.0794 45.38 35.1603 45.38 35.227C45.38 35.2804 45.4733 35.3338 45.58 35.3338C45.86 35.3338 45.98 35.614 46.58 37.6689C48.0467 42.6862 48.0733 44.9012 46.7267 49.745C46.5 50.5056 46.34 51.1461 46.3533 51.1595C46.3667 51.1728 46.78 51.1194 47.2733 51.0527L48.18 50.9193L48.6333 49.4781C49.42 46.9962 49.58 46.0355 49.5667 43.7403C49.5533 41.5519 49.2467 39.6438 48.54 37.3353C48.2733 36.468 48.18 36.3078 47.7933 36.121L47.3667 35.9209L47.9933 35.0535C48.34 34.5865 48.94 33.8393 49.3133 33.3989C49.9133 32.7184 49.9933 32.5449 49.8867 32.3314C49.62 31.8243 48.9133 31.1705 48.2867 30.8503L47.6467 30.53L46.5133 32.8118Z" fill="#12514C"/>
<path d="M28.3033 33.524C28.1167 33.5641 28.1967 33.831 28.7967 35.232C30.2233 38.528 31.1167 41.6504 31.1167 43.345C31.1167 44.2925 30.7967 46.1072 30.45 47.108C30.1033 48.1355 29.37 49.71 29.25 49.71C29.1967 49.71 28.7167 49.0695 28.1833 48.2956C27.17 46.8144 26.7167 45.8537 26.7167 45.1731C26.7167 44.9463 26.65 44.7728 26.5567 44.7728C26.4233 44.7728 26.4233 44.7461 26.5433 44.6661C26.7833 44.5193 27.33 43.225 27.5033 42.3976C27.9167 40.4495 27.4367 38.0609 26.3433 36.6598C26.1167 36.3663 26.1033 36.3663 25.41 36.5664C24.89 36.7265 24.7167 36.8333 24.77 36.9801C24.81 37.0868 24.9433 37.6606 25.0633 38.2611C25.4233 40.0491 25.1567 42.411 24.29 45.0264C24.0767 45.6802 23.85 46.0538 23.3833 46.5209C22.5567 47.3482 22.25 48.1221 22.3567 49.1496C22.4233 50.0169 22.69 50.6441 23.2367 51.2312C23.4233 51.4447 23.5033 51.5781 23.4233 51.5248C23.33 51.4714 23.25 51.4847 23.25 51.5648C23.25 51.6449 23.41 51.7383 23.6233 51.7916C23.8233 51.8317 24.2233 51.9251 24.5033 52.0051C24.7967 52.0719 25.5567 52.1119 26.1833 52.0852C27.2767 52.0452 27.3433 52.0585 27.97 52.4722C28.77 53.0059 29.4233 53.046 29.8767 52.619L30.1833 52.3254L30.1167 52.7257C30.0633 52.9392 30.13 53.3662 30.2367 53.6731C30.4367 54.2336 30.4233 54.2469 30.09 54.5138C29.9033 54.6606 29.5033 54.8474 29.1967 54.9274C28.0633 55.2343 28.1033 55.1943 27.9167 56.4086L27.7567 57.5161L28.2767 57.9565C28.9433 58.5302 30.49 59.2908 31.29 59.4376L31.9167 59.5444V58.8105V58.0632L32.8367 59.9447C33.97 62.2131 35.17 64.0546 36.25 65.1354C37.13 66.0294 38.97 67.2971 40.2767 67.9109C40.73 68.1244 41.0767 68.3513 41.0367 68.418C40.7967 68.8049 40.0367 68.9784 38.4233 69.0585L36.73 69.1252L37.01 69.7924C37.17 70.1527 37.45 70.6998 37.65 70.9933L37.9967 71.5271L39.65 71.5671C40.57 71.5804 41.7167 71.5404 42.1967 71.4737C43.33 71.2869 44.4633 70.9266 44.5433 70.7131C44.61 70.5263 44.2367 69.9125 43.6633 69.272L43.35 68.8898L43.73 68.9651C44.3033 69.0718 45.0767 68.845 45.2633 68.498C45.7433 67.6173 44.89 64.0412 43.6633 61.7728C43.4633 61.3858 43.37 61.1056 43.4633 61.1456C43.7033 61.239 45.1433 60.8387 45.81 60.5051C46.13 60.345 46.5967 60.0381 46.8633 59.8379L47.3567 59.451L46.1967 58.2634C45.1433 57.1692 45.0233 57.1025 44.7833 57.2626C44.1967 57.6629 43.41 58.0365 42.69 58.2634L41.93 58.4902L41.53 57.4627C41.3167 56.9023 41.0367 56.0883 40.9167 55.648C40.7967 55.2077 40.6767 54.7806 40.65 54.7006C40.6233 54.6072 40.13 54.6205 39.0367 54.7273C36.2633 55.0208 36.3033 55.0342 35.1967 54.1268C33.9567 53.0993 33.4233 52.4989 33.01 51.6048C32.6767 50.8576 32.61 50.8309 31.8767 51.1245C31.73 51.1778 31.7967 50.8442 32.1167 49.7501C32.8633 47.2948 33.1433 45.6802 33.2233 43.5585C33.3167 40.6363 32.8367 38.6747 31.1833 35.192L30.33 33.4306L29.4233 33.444C28.93 33.4573 28.4233 33.484 28.3033 33.524Z" fill="#313334"/>
<path d="M34.8042 56.7434C34.7542 56.2931 35.1542 55.9928 35.5617 56.193C37.5607 59.8523 38.9843 61.7449 41.9542 64.4494C42.1042 64.7997 41.7542 65.2501 41.214 65.1365C38.1363 62.3008 36.5967 60.5464 34.8042 56.7434Z" fill="#467773"/>
<path d="M39.3618 34.7124C38.8018 35.5397 38.6285 36.1936 38.7085 37.141C38.7751 37.8215 38.9751 38.3152 39.9885 40.3168C41.4551 43.1857 41.9618 44.5868 42.0685 46.2281C42.1485 47.2822 42.0285 49.3105 41.7751 51.2854L41.6951 51.9392L43.0018 51.8592C43.7218 51.8191 44.3485 51.7391 44.4151 51.6723C44.6151 51.4722 44.7218 46.6151 44.5485 45.4541C44.3485 43.9863 44.0018 43.0923 42.6551 40.3168C42.0018 38.9824 41.4018 37.5947 41.3218 37.2477C41.1351 36.4471 41.3351 35.6465 41.8818 35.0327L42.2685 34.579L41.3751 34.4322C40.8685 34.3521 40.3085 34.2454 40.1085 34.2054C39.8151 34.152 39.6951 34.2187 39.3618 34.7124Z" fill="#313334"/>
<path d="M55.8419 35.5571C54.9752 35.864 54.1219 36.4645 52.9485 37.5854L51.9885 38.5061L51.6019 38.2926C51.2952 38.1325 51.2152 38.1325 51.2819 38.2659C53.0552 42.3491 53.4019 45.0446 52.6419 48.6741C52.5219 49.2078 52.4783 49.4783 52.505 49.505C52.5183 49.5317 52.98 49.4318 53.58 49.245L54.705 48.86L54.84 48.12C54.8933 47.7731 54.9085 46.8326 54.9085 45.6584C54.8952 43.8036 54.8552 43.3365 54.5485 42.1089C54.3485 41.335 54.0819 40.4009 53.9352 40.0273C53.6952 39.4001 53.6952 39.3601 53.9085 39.4135C54.0685 39.4535 54.5885 39.1066 55.4152 38.426C56.1085 37.8523 57.0952 37.0783 57.6152 36.718C58.1352 36.3444 58.5619 35.9975 58.5752 35.9441C58.5752 35.7573 57.4552 35.3169 56.9752 35.3303C56.7219 35.3303 56.2152 35.4237 55.8419 35.5571Z" fill="#313334"/>
<path d="M20.61 38.648C19.6767 39.1684 19.6367 39.2085 19.7433 39.5421C19.7967 39.7422 19.85 40.3027 19.85 40.783V41.6637L20.3833 41.6104C20.7433 41.5703 21.0767 41.637 21.41 41.8105C22.0233 42.1308 22.05 42.0774 22.1433 40.5562C22.2233 39.4086 22.01 38.1009 21.7433 38.1009C21.65 38.1009 21.1433 38.3545 20.61 38.648Z" fill="#313334"/>
<path d="M58.85 38.4079C58.1433 38.7014 57.5033 39.0884 56.1433 40.0758L55.5167 40.5295L56.3167 41.0499C56.7567 41.3301 57.1967 41.5703 57.29 41.5703C57.61 41.5703 59.61 40.2493 60.09 39.7022C60.6633 39.0884 60.7167 38.608 60.29 38.3145C59.9033 38.0342 59.73 38.0476 58.85 38.4079Z" fill="#12514C"/>
<path d="M65.8318 42.7009C65.5373 42.9761 64.9484 43.3774 64.5138 43.5838C63.8127 43.9164 63.7005 44.0196 63.4622 44.5814C63.1677 45.3038 62.9854 46.7485 63.1817 46.9664C63.2518 47.0466 63.7286 47.1842 64.2614 47.276C64.7802 47.3677 65.327 47.4709 65.4672 47.5053C65.7196 47.5741 65.7336 47.4938 65.7336 46.3357C65.7336 45.1547 65.986 43.4921 66.2945 42.6436C66.3646 42.4258 66.4206 42.2308 66.3926 42.2194C66.3786 42.2079 66.1262 42.4258 65.8318 42.7009Z" fill="#313334"/>
<path d="M74.0991 39.879C73.4172 40.4166 72.0665 41.041 71.1172 41.6635C69.5083 42.519 69.3908 42.5668 68.8388 43.6643C68.1569 45.0754 67.7348 47.8976 68.1894 48.3232C68.3517 48.48 69.4557 48.7488 70.6896 48.9279C71.891 49.1071 73.96 50.2465 74.2848 50.3137C74.8692 50.4481 73.782 49.4107 73.5809 47.1768C73.4828 46.0876 73.4235 45.6224 73.5809 44.5627C73.8177 42.9677 74.9687 40.8749 75.3979 39.879C75.5602 39.4534 76.0591 38.7391 75.9942 38.7167C75.9617 38.6943 74.8378 39.3821 74.0991 39.879Z" fill="#12514C"/>
<path d="M58.1833 42.5978C58.1833 42.6645 58.25 43.0648 58.3167 43.5051C58.3967 43.9455 58.45 45.013 58.4633 45.867V47.4149L59.0233 47.2414C59.33 47.148 59.81 47.0279 60.09 46.9745C60.5833 46.8945 60.5833 46.8945 60.5833 46.254C60.5833 45.4667 60.1167 43.9055 59.81 43.6252C59.4633 43.305 58.3433 42.5044 58.2633 42.5044C58.2233 42.5044 58.1833 42.5444 58.1833 42.5978Z" fill="#313334"/>
<path d="M19.6514 42.8514C19.3802 43.1227 19.4932 43.9816 19.8323 44.2755C20.5556 44.8858 21.6858 43.7556 21.0755 43.0323C20.7816 42.6932 19.9227 42.5802 19.6514 42.8514Z" fill="#313334"/>
<path d="M18.37 45.4C17.9434 45.9471 16.85 48.0687 16.85 48.3223C16.85 48.4157 17.41 48.816 18.09 49.2163C20.1167 50.4172 19.9167 50.4172 19.9167 49.2697C19.9167 48.7359 20.01 47.7351 20.13 47.0546C20.25 46.3741 20.3167 45.8136 20.29 45.8003C20.2767 45.7869 19.97 45.6268 19.6234 45.4534C19.2634 45.2799 18.9834 45.0797 18.9834 45.0264C18.9834 44.7728 18.73 44.9329 18.37 45.4Z" fill="#313334"/>
<path d="M52.8767 52.0185L51.77 52.4188L52.1434 52.8058C52.3434 53.0326 53.0767 53.6197 53.7567 54.1401L54.9834 55.0742L55.6367 54.8474C56.4634 54.5805 57.73 53.8199 58.3034 53.2595L58.7434 52.8058L57.77 52.6456C56.5167 52.4455 55.4634 52.1519 54.8234 51.8317C54.21 51.5248 54.2367 51.5248 52.8767 52.0185Z" fill="#12514C"/>
<path d="M47.3433 53.5664L46.3033 53.7799L46.73 54.3803C46.9567 54.7139 47.57 55.5012 48.09 56.1551L49.0233 57.316L49.3567 57.0224C49.7567 56.6354 50.13 55.9149 50.2367 55.3144C50.3167 54.8874 50.2633 54.7806 49.57 54.0734C49.17 53.6598 48.73 53.3128 48.61 53.3262C48.4767 53.3395 47.9167 53.4463 47.3433 53.5664Z" fill="#12514C"/>
<path d="M61.21 54.5938C60.9167 55.1543 59.9434 56.1284 59.1834 56.5954C58.85 56.8089 58.5834 57.0224 58.5834 57.0758C58.5834 57.2359 60.5967 57.9965 61.25 58.0766C61.8234 58.1433 61.9034 58.1166 62.0634 57.8364C62.3567 57.2626 62.25 55.9416 61.81 55.0075L61.4234 54.1802L61.21 54.5938Z" fill="#467773"/>
<path d="M52.29 57.4227C52.25 58.3968 52.1567 58.8905 51.9167 59.4376L51.5967 60.1582L52.53 60.9988C53.0367 61.4659 53.6767 62.0397 53.9433 62.2665L54.4367 62.6668L54.5967 62.093C54.7833 61.4392 54.8367 58.9039 54.6767 57.9698C54.5967 57.5295 54.49 57.316 54.2767 57.2092C54.1167 57.1291 53.61 56.8489 53.17 56.5954L52.3433 56.1284L52.29 57.4227Z" fill="#467773"/>
<path d="M27.5167 62.1597V63.6943L28.09 64.188C29.4633 65.3622 30.9833 65.9227 32.5433 65.8293C33.0767 65.7892 33.5433 65.7359 33.5833 65.6958C33.61 65.6691 33.45 65.0553 33.2233 64.3481L32.7967 63.0538H32.2367C30.9833 63.0538 29.3433 62.3065 28.1167 61.1723L27.5167 60.6119V62.1597Z" fill="#12514C"/>
<path d="M49.3167 62.3332C48.5167 63.0538 47.13 63.7743 46.1167 64.0012C45.7167 64.0946 45.3834 64.188 45.3834 64.228C45.3834 64.2814 47.09 66.5365 47.5167 67.0436C47.77 67.3371 47.8234 67.3505 48.3967 67.2037C49.7567 66.8567 50.8634 66.0695 51.65 64.8819C52.1034 64.2147 52.1567 64.0546 52.0367 63.8144C51.8767 63.5075 50.17 61.7194 50.05 61.7194C50.01 61.7327 49.69 61.9996 49.3167 62.3332Z" fill="#467773"/>
<path d="M27.65 67.8042C27.6633 68.1644 28.0633 70.7264 28.1966 71.2869C28.41 72.1542 28.7966 72.8881 29.09 72.9815C29.4233 73.0883 30.77 72.7147 31.53 72.3143C32.3433 71.874 33.33 71.0467 33.7966 70.4195C34.3833 69.6456 34.33 69.5922 33.09 69.6856C31.1833 69.8057 29.3833 69.2586 28.1966 68.1911C27.9033 67.9109 27.65 67.7508 27.65 67.8042Z" fill="#467773"/>
<path d="M15.65 41.3182C16.3538 40.864 16.8309 40.6406 17.75 40.2674C17.8496 41.0955 17.8105 41.5767 17.55 42.4691C16.9499 43.2645 16.6713 43.702 16.25 44.4707C15.7804 45.4675 15.6501 46.0262 15.5 47.0227C14.9966 46.4523 14.7379 46.1275 14.4 45.5215C14.171 45.0732 14.0879 44.7968 14 44.2705C14.0158 43.6375 14.1119 43.2993 14.4 42.7193C14.7265 42.2095 15.0191 41.8984 15.65 41.3182Z" fill="#12514C"/>
<path d="M24.2 45.2713L26.8 44.3206L26.6 44.7209L23.9 45.8718L24.2 45.2713Z" fill="white"/>
<path d="M28.93 49.3245L29.505 49.3245C29.485 49.365 29.535 49.375 29.5625 49.4125C29.5901 49.45 30.8078 51.9357 30.16 52.46C29.9962 52.6048 29.9029 52.6621 29.735 52.735C30.3176 51.772 29.876 50.5918 28.93 49.3245Z" fill="white"/>
<path d="M36.7 69.0899C39.1025 68.9946 40.5486 68.9144 40.95 68.2893C41.7752 68.5421 42.4437 68.8566 43.35 68.8898C44.3891 70.0837 44.7954 70.6444 44.4 70.8913C42.831 71.5885 41.4465 71.7772 38 71.5418C37.4186 70.7762 37.0993 70.1521 36.7 69.0899Z" fill="#467773"/>
<path d="M118.304 57V34.504H122.656V57H118.304ZM121.504 47.784V43.912H132.832V47.784H121.504ZM121.504 38.344V34.504H133.376V38.344H121.504ZM136.356 57V41.544H140.58V57H136.356ZM138.468 39.048C137.785 39.048 137.22 38.824 136.772 38.376C136.324 37.9067 136.1 37.3307 136.1 36.648C136.1 35.9867 136.324 35.4213 136.772 34.952C137.22 34.4827 137.785 34.248 138.468 34.248C139.172 34.248 139.737 34.4827 140.164 34.952C140.612 35.4213 140.836 35.9867 140.836 36.648C140.836 37.3307 140.612 37.9067 140.164 38.376C139.737 38.824 139.172 39.048 138.468 39.048ZM149.606 57.352C148.731 57.352 147.867 57.2347 147.014 57C146.182 56.7653 145.414 56.4453 144.71 56.04C144.006 55.6133 143.398 55.1013 142.886 54.504L145.382 51.976C145.915 52.5733 146.534 53.0213 147.238 53.32C147.942 53.6187 148.72 53.768 149.574 53.768C150.256 53.768 150.768 53.672 151.11 53.48C151.472 53.288 151.654 53 151.654 52.616C151.654 52.1893 151.462 51.8587 151.078 51.624C150.715 51.3893 150.235 51.1973 149.638 51.048C149.04 50.8773 148.411 50.696 147.75 50.504C147.11 50.2907 146.491 50.024 145.894 49.704C145.296 49.3627 144.806 48.904 144.422 48.328C144.059 47.7307 143.878 46.9627 143.878 46.024C143.878 45.0427 144.112 44.1893 144.582 43.464C145.072 42.7387 145.766 42.1733 146.661 41.768C147.558 41.3627 148.614 41.16 149.83 41.16C151.11 41.16 152.262 41.384 153.286 41.832C154.331 42.28 155.195 42.952 155.878 43.848L153.35 46.376C152.88 45.8 152.347 45.384 151.75 45.128C151.174 44.872 150.544 44.744 149.862 44.744C149.243 44.744 148.763 44.84 148.422 45.032C148.102 45.224 147.942 45.4907 147.942 45.832C147.942 46.216 148.123 46.5147 148.486 46.728C148.87 46.9413 149.36 47.1333 149.958 47.304C150.555 47.4533 151.174 47.6347 151.814 47.848C152.475 48.04 153.094 48.3173 153.67 48.68C154.267 49.0427 154.747 49.5227 155.11 50.12C155.494 50.7173 155.686 51.4853 155.686 52.424C155.686 53.9387 155.142 55.144 154.054 56.04C152.966 56.9147 151.483 57.352 149.606 57.352ZM168.912 57V48.136C168.912 47.2187 168.624 46.472 168.048 45.896C167.472 45.32 166.726 45.032 165.808 45.032C165.211 45.032 164.678 45.16 164.208 45.416C163.739 45.672 163.366 46.0347 163.088 46.504C162.832 46.9733 162.704 47.5173 162.704 48.136L161.072 47.304C161.072 46.088 161.328 45.032 161.84 44.136C162.352 43.2187 163.056 42.504 163.952 41.992C164.87 41.48 165.915 41.224 167.088 41.224C168.262 41.224 169.296 41.48 170.192 41.992C171.11 42.504 171.824 43.208 172.336 44.104C172.848 45 173.104 46.0347 173.104 47.208V57H168.912ZM158.512 57V33.864H162.704V57H158.512ZM178.342 57V39.88C178.342 38.6427 178.608 37.5547 179.141 36.616C179.675 35.656 180.432 34.8987 181.414 34.344C182.395 33.7893 183.547 33.512 184.87 33.512C185.872 33.512 186.736 33.6827 187.462 34.024C188.187 34.3653 188.838 34.8347 189.414 35.432L186.758 38.12C186.523 37.8853 186.267 37.704 185.99 37.576C185.712 37.448 185.36 37.384 184.934 37.384C184.166 37.384 183.568 37.5973 183.142 38.024C182.736 38.4293 182.534 39.016 182.534 39.784V57H178.342ZM174.758 45.224V41.544H187.11V45.224H174.758ZM196.245 57.32C194.688 57.32 193.28 56.968 192.021 56.264C190.784 55.5387 189.792 54.568 189.045 53.352C188.32 52.1147 187.957 50.7387 187.957 49.224C187.957 47.7093 188.32 46.3547 189.045 45.16C189.77 43.944 190.762 42.984 192.021 42.28C193.28 41.5547 194.677 41.192 196.213 41.192C197.792 41.192 199.2 41.5547 200.437 42.28C201.696 42.984 202.688 43.944 203.413 45.16C204.138 46.3547 204.501 47.7093 204.501 49.224C204.501 50.7387 204.138 52.1147 203.413 53.352C202.688 54.568 201.696 55.5387 200.437 56.264C199.2 56.968 197.802 57.32 196.245 57.32ZM196.213 53.416C197.002 53.416 197.696 53.2453 198.293 52.904C198.912 52.5413 199.381 52.0507 199.701 51.432C200.042 50.792 200.213 50.0667 200.213 49.256C200.213 48.4453 200.042 47.7307 199.701 47.112C199.36 46.4933 198.89 46.0133 198.293 45.672C197.696 45.3093 197.002 45.128 196.213 45.128C195.445 45.128 194.762 45.3093 194.165 45.672C193.568 46.0133 193.098 46.4933 192.757 47.112C192.416 47.7307 192.245 48.4453 192.245 49.256C192.245 50.0667 192.416 50.792 192.757 51.432C193.098 52.0507 193.568 52.5413 194.165 52.904C194.762 53.2453 195.445 53.416 196.213 53.416ZM214.464 57.32C212.906 57.32 211.498 56.968 210.24 56.264C209.002 55.5387 208.01 54.568 207.264 53.352C206.538 52.1147 206.176 50.7387 206.176 49.224C206.176 47.7093 206.538 46.3547 207.264 45.16C207.989 43.944 208.981 42.984 210.24 42.28C211.498 41.5547 212.896 41.192 214.432 41.192C216.01 41.192 217.418 41.5547 218.656 42.28C219.914 42.984 220.906 43.944 221.632 45.16C222.357 46.3547 222.72 47.7093 222.72 49.224C222.72 50.7387 222.357 52.1147 221.632 53.352C220.906 54.568 219.914 55.5387 218.656 56.264C217.418 56.968 216.021 57.32 214.464 57.32ZM214.432 53.416C215.221 53.416 215.914 53.2453 216.512 52.904C217.13 52.5413 217.6 52.0507 217.92 51.432C218.261 50.792 218.432 50.0667 218.432 49.256C218.432 48.4453 218.261 47.7307 217.92 47.112C217.578 46.4933 217.109 46.0133 216.512 45.672C215.914 45.3093 215.221 45.128 214.432 45.128C213.664 45.128 212.981 45.3093 212.384 45.672C211.786 46.0133 211.317 46.4933 210.976 47.112C210.634 47.7307 210.464 48.4453 210.464 49.256C210.464 50.0667 210.634 50.792 210.976 51.432C211.317 52.0507 211.786 52.5413 212.384 52.904C212.981 53.2453 213.664 53.416 214.432 53.416ZM231.947 57.32C230.517 57.32 229.237 56.968 228.107 56.264C226.976 55.56 226.08 54.6 225.419 53.384C224.779 52.168 224.459 50.8027 224.459 49.288C224.459 47.752 224.779 46.376 225.419 45.16C226.08 43.944 226.965 42.984 228.075 42.28C229.205 41.576 230.496 41.224 231.947 41.224C233.056 41.224 234.048 41.448 234.923 41.896C235.819 42.344 236.533 42.9733 237.067 43.784C237.621 44.5733 237.92 45.4693 237.963 46.472V51.976C237.92 52.9787 237.632 53.8853 237.099 54.696C236.565 55.5067 235.851 56.1467 234.955 56.616C234.059 57.0853 233.056 57.32 231.947 57.32ZM232.651 53.448C233.44 53.448 234.123 53.2773 234.699 52.936C235.296 52.5733 235.755 52.0827 236.075 51.464C236.416 50.824 236.587 50.088 236.587 49.256C236.587 48.4453 236.416 47.7307 236.075 47.112C235.755 46.472 235.296 45.9813 234.699 45.64C234.123 45.2773 233.451 45.096 232.683 45.096C231.893 45.096 231.2 45.2773 230.603 45.64C230.027 46.0027 229.568 46.4933 229.227 47.112C228.907 47.7307 228.747 48.4453 228.747 49.256C228.747 50.088 228.907 50.824 229.227 51.464C229.568 52.0827 230.037 52.5733 230.635 52.936C231.232 53.2773 231.904 53.448 232.651 53.448ZM240.523 57H236.363V52.84L237.035 49.064L236.331 45.352V33.864H240.523V57ZM250.929 57V34.504H255.281V57H250.929ZM259.898 57V34.504H262.938L264.25 38.856V57H259.898ZM275.45 57L262.106 39.72L262.938 34.504L276.282 51.784L275.45 57ZM275.45 57L274.202 52.776V34.504H278.586V57H275.45ZM296.748 57L286.988 45.256L296.492 34.504H301.932L291.34 46.184L291.372 44.168L302.284 57H296.748ZM283.148 57V34.504H287.5V57H283.148Z" fill="black"/>
</svg>
